<svg width="122" height="23" viewBox="0 0 122 23" fill="none" xmlns="http://www.w3.org/2000/svg">
  <title>KOOKAÏ Australia</title>
  <path d="M121.497 1.32152C121.497 1.06022 121.42 0.804872 121.277 0.587748C121.134 0.370625 120.931 0.201475 120.693 0.101679C120.456 0.00188262 120.194 -0.0240796 119.942 0.0270737C119.69 0.078227 119.458 0.2042 119.277 0.389068C119.095 0.573937 118.971 0.809403 118.921 1.0657C118.871 1.322 118.897 1.58763 118.995 1.82902C119.094 2.0704 119.26 2.2767 119.474 2.42184C119.688 2.56698 119.94 2.64445 120.197 2.64445C120.368 2.64445 120.537 2.61022 120.695 2.54372C120.853 2.47722 120.996 2.37975 121.117 2.25688C121.238 2.13402 121.333 1.98817 121.399 1.82767C121.464 1.66718 121.497 1.49518 121.497 1.32152ZM117.333 1.32152C117.333 1.05987 117.256 0.804098 117.113 0.586544C116.97 0.36899 116.767 0.199428 116.529 0.0992986C116.291 -0.000830508 116.029 -0.027029 115.777 0.0240164C115.524 0.0750618 115.292 0.201058 115.11 0.386073C114.928 0.571087 114.804 0.80681 114.754 1.06343C114.704 1.32005 114.729 1.58605 114.828 1.82778C114.926 2.06952 115.093 2.27613 115.307 2.42149C115.521 2.56686 115.773 2.64445 116.031 2.64445C116.202 2.64464 116.371 2.61055 116.529 2.54414C116.687 2.47772 116.831 2.38028 116.952 2.2574C117.073 2.13452 117.168 1.9886 117.234 1.82801C117.299 1.66742 117.333 1.4953 117.333 1.32152ZM105.704 22.6119H108.118L99.5166 3.52834L90.9141 22.6119H93.3262L95.3821 18.0238H103.65L105.704 22.6119ZM102.717 15.9348H96.3177L99.5195 8.52928L102.717 15.9348ZM84.5177 22.6119L76.2743 12.5329L84.3747 4.30319H81.439L73.7893 12.2422V4.3061H71.5446V22.6119H73.7893V14.9651V13.1944L81.4833 22.6773L84.5177 22.6119ZM63.3584 13.4532C63.3584 8.20946 59.0808 3.91213 53.9161 3.91213C48.7515 3.91213 44.4739 8.20946 44.4739 13.4532C44.4739 18.8917 48.7029 22.9942 53.9161 22.9942C59.1294 22.9942 63.3584 18.8917 63.3584 13.4532ZM61.1109 13.4532C61.1109 15.3914 60.3532 17.2502 59.0044 18.6208C57.6557 19.9913 55.8264 20.7613 53.919 20.7613C52.0116 20.7613 50.1823 19.9913 48.8336 18.6208C47.4848 17.2502 46.7271 15.3914 46.7271 13.4532C46.7271 9.42335 49.69 6.04916 53.919 6.04916C58.148 6.04916 61.1109 9.42335 61.1109 13.4532ZM37.9673 13.4532C37.9673 8.20946 33.6896 3.91213 28.525 3.91213C23.3603 3.91213 19.0827 8.20946 19.0827 13.4532C19.0827 18.8917 23.3117 22.9942 28.525 22.9942C33.7383 22.9942 37.9673 18.8917 37.9673 13.4532ZM35.7211 13.4532C35.7211 15.3914 34.9634 17.2502 33.6147 18.6208C32.266 19.9913 30.4367 20.7613 28.5293 20.7613C26.6219 20.7613 24.7926 19.9913 23.4439 18.6208C22.0951 17.2502 21.3374 15.3914 21.3374 13.4532C21.3374 9.42335 24.3003 6.04916 28.5293 6.04916C32.7583 6.04916 35.7211 9.42335 35.7211 13.4532ZM13.4746 22.6119L5.23116 12.5329L13.3315 4.30319H10.3915L2.75327 12.2422V4.3061H0.5V22.6119H2.75327V13.2744L10.4459 22.6104H13.4803L13.4746 22.6119ZM119.232 4.3061H116.986V22.6119H119.232V4.3061Z" fill="white"></path>
</svg>